<svg width="115" height="22" viewBox="0 0 115 22" fill="none" xmlns="http://www.w3.org/2000/svg">
<path d="M34.5665 4.69287C35.5623 4.69287 36.4253 4.81735 37.1555 5.06629C37.8858 5.29865 38.5164 5.63058 39.0475 6.06209C40.0931 6.90851 40.7736 8.09516 41.0889 9.62204L37.9522 10.1946C37.6866 9.3482 37.2717 8.66774 36.7074 8.15325C36.1597 7.62216 35.471 7.35662 34.6412 7.35662C33.5126 7.35662 32.5998 7.82962 31.9027 8.77562C31.1559 9.80461 30.7825 11.2319 30.7825 13.0575C30.7825 14.8666 31.1144 16.2856 31.7783 17.3145C32.4421 18.3269 33.3466 18.8331 34.4918 18.8331C35.6369 18.8331 36.5 18.5593 37.0808 18.0116C37.6617 17.4473 37.9522 16.7254 37.9522 15.8457H41.1138C41.1138 17.6548 40.5329 19.0572 39.3712 20.053C38.226 21.0322 36.6493 21.5218 34.6412 21.5218C32.5002 21.5218 30.7991 20.7749 29.5377 19.2812C28.2598 17.7543 27.6208 15.6798 27.6208 13.0575C27.6208 10.4021 28.2764 8.32751 29.5875 6.83383C30.8488 5.40652 32.5085 4.69287 34.5665 4.69287Z" fill="black"/>
<path d="M47.158 14.1031C48.1206 14.1031 49.2326 14.2608 50.4939 14.5761V13.3812C50.4939 12.5347 50.3196 11.9124 49.9711 11.5141C49.6392 11.0991 49.0832 10.8917 48.3032 10.8917C47.5397 10.8917 46.9505 11.0493 46.5356 11.3647C46.1207 11.6634 45.9133 12.0949 45.9133 12.6592H42.7018C42.7018 11.2817 43.1831 10.2859 44.1457 9.67183C45.1249 9.05776 46.4858 8.75073 48.2285 8.75073C50.718 8.75073 52.3278 9.62205 53.0581 11.3647C53.307 11.9622 53.4315 12.6675 53.4315 13.4807V21.1732H50.8673L50.6433 19.5551C49.8632 20.8662 48.6683 21.5218 47.0584 21.5218C45.4983 21.5218 44.2868 21.14 43.4238 20.3766C42.6271 19.6464 42.2288 18.7252 42.2288 17.6133C42.2288 16.4847 42.6686 15.6217 43.5482 15.0242C44.4279 14.4101 45.6311 14.1031 47.158 14.1031ZM50.4939 16.4432C49.5147 16.1777 48.6019 16.0449 47.7555 16.0449C46.1622 16.0449 45.3656 16.576 45.3656 17.6382C45.3656 18.0863 45.5481 18.4763 45.9133 18.8082C46.2784 19.1236 46.8593 19.2812 47.6559 19.2812C48.4691 19.2812 49.133 19.0157 49.6475 18.4846C50.1786 17.9369 50.4607 17.2565 50.4939 16.4432Z" fill="black"/>
<path d="M57.9868 17.4888C58.02 18.634 58.8582 19.2065 60.5012 19.2065C61.1319 19.2065 61.6464 19.0738 62.0447 18.8082C62.4596 18.5261 62.6671 18.2025 62.6671 17.8373C62.6671 17.4722 62.5426 17.1901 62.2936 16.9909C62.0447 16.7917 61.6547 16.6092 61.1236 16.4432L58.4847 15.4972C56.5264 14.8168 55.5472 13.7048 55.5472 12.1613C55.5472 11.1323 56.0036 10.3108 56.9164 9.69673C57.8458 9.06606 59.0822 8.75073 60.6257 8.75073C62.1858 8.75073 63.3807 9.09096 64.2105 9.77141C65.057 10.4519 65.4968 11.3066 65.53 12.3356H62.7666C62.7335 11.9373 62.5426 11.6219 62.1941 11.3896C61.8455 11.1572 61.3476 11.041 60.7004 11.041C60.0531 11.041 59.5469 11.1738 59.1818 11.4394C58.8333 11.6883 58.659 11.9788 58.659 12.3107C58.659 12.8916 59.1486 13.3231 60.1278 13.6052L62.9907 14.6757C63.9367 14.991 64.6587 15.3976 65.1566 15.8955C65.671 16.3768 65.9283 17.0075 65.9283 17.7875C65.9283 18.7833 65.4553 19.6464 64.5093 20.3766C63.5301 21.14 62.2356 21.5218 60.6257 21.5218C59.0158 21.5218 57.7213 21.1732 56.7421 20.4762C55.7629 19.7625 55.265 18.7667 55.2484 17.4888H57.9868Z" fill="black"/>
<path d="M76.542 10.5183C76.9569 11.0493 77.264 11.6634 77.4632 12.3605C77.6789 13.0575 77.7868 13.6965 77.7868 14.2774C77.7868 14.8583 77.7536 15.381 77.6872 15.8457H69.8702C69.9034 16.8249 70.1441 17.6216 70.5922 18.2356C71.0403 18.8497 71.7207 19.1568 72.6335 19.1568C73.8451 19.1568 74.5671 18.6257 74.7994 17.5635H77.7619C77.5627 18.775 77.0067 19.7293 76.0939 20.4264C75.1479 21.1566 73.9945 21.5218 72.6335 21.5218C71.0403 21.5218 69.7043 20.9409 68.6255 19.7791C67.5135 18.5676 66.9575 17.0158 66.9575 15.1238C66.9575 13.182 67.5135 11.6219 68.6255 10.4436C69.6877 9.31501 71.0237 8.75073 72.6335 8.75073C74.3098 8.75073 75.6126 9.3399 76.542 10.5183ZM72.6584 11.0908C71.8286 11.0908 71.1814 11.3647 70.7167 11.9124C70.2519 12.4435 69.9781 13.1322 69.8951 13.9786H75.0483C75.0483 12.6675 74.6334 11.7879 73.8036 11.3398C73.4883 11.1738 73.1066 11.0908 72.6584 11.0908Z" fill="black"/>
<path d="M80.7741 5.0165H90.5267V7.55577H83.7117V11.8128H89.9043V14.3272H83.7117V21.1732H80.7741V5.0165Z" fill="black"/>
<path d="M92.9857 10.5478H95.9233V21.1732H92.9857V10.5478ZM92.6372 6.66423C92.6372 6.13314 92.7948 5.71823 93.1102 5.41949C93.4255 5.10416 93.8736 4.94649 94.4545 4.94649C95.0188 4.94649 95.4586 5.10416 95.7739 5.41949C96.1058 5.71823 96.2718 6.13314 96.2718 6.66423C96.2718 7.19532 96.1058 7.61853 95.7739 7.93387C95.4586 8.2326 95.0188 8.38197 94.4545 8.38197C93.8736 8.38197 93.4255 8.2326 93.1102 7.93387C92.7948 7.61853 92.6372 7.19532 92.6372 6.66423Z" fill="black"/>
<path d="M99.0049 4.94651H101.943V21.1732H99.0049V4.94651Z" fill="black"/>
<path d="M113.755 10.5183C114.17 11.0493 114.477 11.6634 114.676 12.3605C114.892 13.0575 115 13.6965 115 14.2774C115 14.8583 114.967 15.381 114.9 15.8457H107.083C107.117 16.8249 107.357 17.6216 107.805 18.2356C108.254 18.8497 108.934 19.1568 109.847 19.1568C111.058 19.1568 111.78 18.6257 112.013 17.5635H114.975C114.776 18.775 114.22 19.7293 113.307 20.4264C112.361 21.1566 111.208 21.5218 109.847 21.5218C108.254 21.5218 106.917 20.9409 105.839 19.7791C104.727 18.5676 104.171 17.0158 104.171 15.1238C104.171 13.182 104.727 11.6219 105.839 10.4436C106.901 9.31501 108.237 8.75073 109.847 8.75073C111.523 8.75073 112.826 9.3399 113.755 10.5183ZM109.872 11.0908C109.042 11.0908 108.395 11.3647 107.93 11.9124C107.465 12.4435 107.191 13.1322 107.108 13.9786H112.262C112.262 12.6675 111.847 11.7879 111.017 11.3398C110.701 11.1738 110.32 11.0908 109.872 11.0908Z" fill="black"/>
<path fill-rule="evenodd" clip-rule="evenodd" d="M3.37117 0.946167H6.74234V4.31734L20.227 4.3174V17.8021L16.8559 21.1733H0V4.31734L3.37117 0.946167ZM8.39879 18.7722C8.39879 13.5656 12.6195 9.34494 17.826 9.34494V7.6309C11.6729 7.6309 6.68475 12.619 6.68475 18.7722H8.39879ZM17.826 12.7064C14.476 12.7064 11.7602 15.4221 11.7602 18.7722H10.0271C10.0271 14.465 13.5188 10.9733 17.826 10.9733V12.7064ZM15.1521 18.7722C15.1521 17.2954 16.3493 16.0983 17.826 16.0983V14.3157C15.3648 14.3157 13.3695 16.3109 13.3695 18.7722H15.1521Z" fill="#2B61F0"/>
</svg>
