<?xml version="1.0" encoding="UTF-8"?>
<!-- Generated by Pixelmator Pro 3.4.3 -->
<svg width="115" height="44" viewBox="0 0 115 44" xmlns="http://www.w3.org/2000/svg">
    <path id="Path" fill="#000000" stroke="none" d="M 34.566502 15.692871 C 35.562302 15.692871 36.425301 15.81735 37.155499 16.06629 C 37.885799 16.298649 38.516399 16.630581 39.047501 17.06209 C 40.093102 17.90851 40.773602 19.09516 41.088902 20.62204 L 37.952202 21.194601 C 37.6866 20.3482 37.271702 19.66774 36.707401 19.15325 C 36.159698 18.62216 35.471001 18.356621 34.641201 18.356621 C 33.5126 18.356621 32.5998 18.82962 31.9027 19.775621 C 31.155899 20.804611 30.782499 22.231901 30.782499 24.057501 C 30.782499 25.8666 31.114401 27.285601 31.778299 28.314501 C 32.442101 29.3269 33.3466 29.833099 34.491798 29.833099 C 35.636902 29.833099 36.5 29.559299 37.080799 29.0116 C 37.661701 28.4473 37.952202 27.725401 37.952202 26.845701 L 41.1138 26.845701 C 41.1138 28.6548 40.532902 30.057199 39.371201 31.052999 C 38.226002 32.0322 36.6493 32.521797 34.641201 32.521797 C 32.500198 32.521797 30.799101 31.7749 29.537701 30.2812 C 28.2598 28.754299 27.6208 26.6798 27.6208 24.057501 C 27.6208 21.4021 28.2764 19.327511 29.5875 17.83383 C 30.848801 16.406521 32.508499 15.692871 34.566502 15.692871 Z"/>
    <path id="path1" fill="#000000" stroke="none" d="M 47.158001 25.1031 C 48.120602 25.1031 49.232601 25.260801 50.4939 25.576101 L 50.4939 24.381201 C 50.4939 23.5347 50.319599 22.912401 49.9711 22.514101 C 49.639198 22.0991 49.083199 21.891701 48.3032 21.891701 C 47.5397 21.891701 46.9505 22.049301 46.535599 22.3647 C 46.120701 22.663401 45.9133 23.0949 45.9133 23.659201 L 42.701801 23.659201 C 42.701801 22.2817 43.183102 21.2859 44.145699 20.671831 C 45.124901 20.05776 46.485802 19.750731 48.2285 19.750731 C 50.717999 19.750731 52.327801 20.622051 53.058102 22.3647 C 53.306999 22.9622 53.431499 23.6675 53.431499 24.4807 L 53.431499 32.173203 L 50.867298 32.173203 L 50.643299 30.555099 C 49.863201 31.866199 48.668301 32.521797 47.058399 32.521797 C 45.498299 32.521797 44.2868 32.139999 43.423801 31.3766 C 42.627102 30.6464 42.228802 29.725201 42.228802 28.6133 C 42.228802 27.484699 42.668598 26.6217 43.548199 26.0242 C 44.427898 25.410101 45.6311 25.1031 47.158001 25.1031 Z M 50.4939 27.443199 C 49.514702 27.1777 48.601898 27.044901 47.755501 27.044901 C 46.162201 27.044901 45.365601 27.576 45.365601 28.638201 C 45.365601 29.0863 45.5481 29.476299 45.9133 29.808201 C 46.2784 30.1236 46.859299 30.2812 47.655899 30.2812 C 48.469101 30.2812 49.132999 30.015699 49.647499 29.4846 C 50.1786 28.936899 50.460701 28.2565 50.4939 27.443199 Z"/>
    <path id="path2" fill="#000000" stroke="none" d="M 57.986801 28.4888 C 58.02 29.634001 58.8582 30.206499 60.501202 30.206499 C 61.131901 30.206499 61.6464 30.073799 62.044701 29.808201 C 62.459599 29.5261 62.667099 29.202499 62.667099 28.837299 C 62.667099 28.4722 62.542599 28.1901 62.293598 27.9909 C 62.044701 27.7917 61.654701 27.6092 61.1236 27.443199 L 58.484699 26.4972 C 56.526402 25.816801 55.547199 24.7048 55.547199 23.161301 C 55.547199 22.132301 56.003601 21.310801 56.916401 20.69673 C 57.845798 20.066061 59.082199 19.750731 60.625702 19.750731 C 62.185799 19.750731 63.380699 20.09096 64.210503 20.77141 C 65.056999 21.4519 65.496803 22.306601 65.529999 23.3356 L 62.766602 23.3356 C 62.733501 22.9373 62.542599 22.621901 62.194099 22.389601 C 61.845501 22.1572 61.347599 22.041 60.700401 22.041 C 60.053101 22.041 59.546902 22.173801 59.181801 22.4394 C 58.833302 22.688301 58.659 22.9788 58.659 23.310701 C 58.659 23.8916 59.148602 24.323101 60.1278 24.6052 L 62.9907 25.675701 C 63.936699 25.991001 64.658699 26.3976 65.156601 26.8955 C 65.670998 27.376801 65.928299 28.0075 65.928299 28.7875 C 65.928299 29.7833 65.455299 30.6464 64.5093 31.3766 C 63.530102 32.139999 62.2356 32.521797 60.625702 32.521797 C 59.0158 32.521797 57.721298 32.173203 56.7421 31.4762 C 55.762901 30.762501 55.264999 29.766701 55.248402 28.4888 L 57.986801 28.4888 Z"/>
    <path id="path3" fill="#000000" stroke="none" d="M 76.542 21.518301 C 76.956902 22.049301 77.264 22.663401 77.463203 23.3605 C 77.678902 24.057501 77.786797 24.696501 77.786797 25.277401 C 77.786797 25.858301 77.753601 26.381001 77.687202 26.845701 L 69.870201 26.845701 C 69.903397 27.8249 70.144096 28.621599 70.592201 29.2356 C 71.040298 29.849701 71.720703 30.156799 72.633499 30.156799 C 73.8451 30.156799 74.567101 29.6257 74.7994 28.563499 L 77.761902 28.563499 C 77.562698 29.775 77.006699 30.7293 76.093903 31.426399 C 75.147903 32.156601 73.994499 32.521797 72.633499 32.521797 C 71.040298 32.521797 69.7043 31.940901 68.625504 30.7791 C 67.513496 29.5676 66.957497 28.0158 66.957497 26.1238 C 66.957497 24.182001 67.513496 22.621901 68.625504 21.4436 C 69.687698 20.31501 71.023697 19.750731 72.633499 19.750731 C 74.309799 19.750731 75.612602 20.339901 76.542 21.518301 Z M 72.658401 22.090801 C 71.828598 22.090801 71.181396 22.3647 70.716698 22.912401 C 70.2519 23.443501 69.978104 24.1322 69.895103 24.9786 L 75.048302 24.9786 C 75.048302 23.6675 74.6334 22.787901 73.803596 22.3398 C 73.488297 22.173801 73.106598 22.090801 72.658401 22.090801 Z"/>
    <path id="path4" fill="#000000" stroke="none" d="M 80.774101 16.0165 L 90.526703 16.0165 L 90.526703 18.555771 L 83.7117 18.555771 L 83.7117 22.812801 L 89.904297 22.812801 L 89.904297 25.3272 L 83.7117 25.3272 L 83.7117 32.173203 L 80.774101 32.173203 L 80.774101 16.0165 Z"/>
    <path id="path5" fill="#000000" stroke="none" d="M 92.985703 21.5478 L 95.923302 21.5478 L 95.923302 32.173203 L 92.985703 32.173203 L 92.985703 21.5478 Z M 92.637199 17.66423 C 92.637199 17.133141 92.7948 16.718229 93.110199 16.419491 C 93.425499 16.10416 93.873596 15.946489 94.454498 15.946489 C 95.018799 15.946489 95.458603 16.10416 95.773903 16.419491 C 96.105797 16.718229 96.271797 17.133141 96.271797 17.66423 C 96.271797 18.19532 96.105797 18.61853 95.773903 18.93387 C 95.458603 19.232599 95.018799 19.381969 94.454498 19.381969 C 93.873596 19.381969 93.425499 19.232599 93.110199 18.93387 C 92.7948 18.61853 92.637199 18.19532 92.637199 17.66423 Z"/>
    <path id="path6" fill="#000000" stroke="none" d="M 99.004898 15.94651 L 101.943001 15.94651 L 101.943001 32.173203 L 99.004898 32.173203 L 99.004898 15.94651 Z"/>
    <path id="path7" fill="#000000" stroke="none" d="M 113.754997 21.518301 C 114.169998 22.049301 114.476997 22.663401 114.676003 23.3605 C 114.891998 24.057501 115 24.696501 115 25.277401 C 115 25.858301 114.967003 26.381001 114.900002 26.845701 L 107.083 26.845701 C 107.116997 27.8249 107.357002 28.621599 107.805 29.2356 C 108.253998 29.849701 108.933998 30.156799 109.847 30.156799 C 111.057999 30.156799 111.779999 29.6257 112.013 28.563499 L 114.974998 28.563499 C 114.776001 29.775 114.220001 30.7293 113.306999 31.426399 C 112.361 32.156601 111.208 32.521797 109.847 32.521797 C 108.253998 32.521797 106.917 31.940901 105.838997 30.7791 C 104.726997 29.5676 104.170998 28.0158 104.170998 26.1238 C 104.170998 24.182001 104.726997 22.621901 105.838997 21.4436 C 106.901001 20.31501 108.237 19.750731 109.847 19.750731 C 111.523003 19.750731 112.825996 20.339901 113.754997 21.518301 Z M 109.872002 22.090801 C 109.042 22.090801 108.394997 22.3647 107.93 22.912401 C 107.464996 23.443501 107.191002 24.1322 107.108002 24.9786 L 112.262001 24.9786 C 112.262001 23.6675 111.847 22.787901 111.016998 22.3398 C 110.700996 22.173801 110.32 22.090801 109.872002 22.090801 Z"/>
    <path id="path8" fill="#2b61f0" fill-rule="evenodd" stroke="none" d="M 3.37117 11.946167 L 6.74234 11.946167 L 6.74234 15.317341 L 20.226999 15.3174 L 20.226999 28.802099 L 16.8559 32.173302 L 0 32.173302 L 0 15.317341 L 3.37117 11.946167 Z M 8.39879 29.7722 C 8.39879 24.565601 12.6195 20.34494 17.826 20.34494 L 17.826 18.630899 C 11.6729 18.630899 6.68475 23.619001 6.68475 29.7722 L 8.39879 29.7722 Z M 17.826 23.7064 C 14.476 23.7064 11.7602 26.4221 11.7602 29.7722 L 10.0271 29.7722 C 10.0271 25.465 13.5188 21.973301 17.826 21.973301 L 17.826 23.7064 Z M 15.1521 29.7722 C 15.1521 28.295401 16.3493 27.098301 17.826 27.098301 L 17.826 25.315701 C 15.3648 25.315701 13.3695 27.3109 13.3695 29.7722 L 15.1521 29.7722 Z"/>
</svg>
