<?xml version="1.0" encoding="UTF-8"?>
<!-- Generated by Pixelmator Pro 3.4.3 -->
<svg width="115" height="35" viewBox="0 0 115 35" xmlns="http://www.w3.org/2000/svg">
    <path id="Path" fill="#000000" stroke="none" d="M 34.566502 11.692871 C 35.562302 11.692871 36.425301 11.81735 37.155499 12.06629 C 37.885799 12.298649 38.516399 12.630581 39.047501 13.06209 C 40.093102 13.90851 40.773602 15.09516 41.088902 16.62204 L 37.952202 17.194601 C 37.6866 16.3482 37.271702 15.66774 36.707401 15.15325 C 36.159698 14.62216 35.471001 14.356621 34.641201 14.356621 C 33.5126 14.356621 32.5998 14.82962 31.9027 15.775621 C 31.155899 16.804611 30.782499 18.231901 30.782499 20.057499 C 30.782499 21.8666 31.114401 23.285601 31.778299 24.314501 C 32.442101 25.3269 33.3466 25.833099 34.491798 25.833099 C 35.636902 25.833099 36.5 25.559299 37.080799 25.0116 C 37.661701 24.4473 37.952202 23.725401 37.952202 22.845699 L 41.1138 22.845699 C 41.1138 24.6548 40.532902 26.057199 39.371201 27.052999 C 38.226002 28.0322 36.6493 28.521799 34.641201 28.521799 C 32.500198 28.521799 30.799101 27.7749 29.537701 26.2812 C 28.2598 24.754299 27.6208 22.6798 27.6208 20.057499 C 27.6208 17.4021 28.2764 15.327511 29.5875 13.83383 C 30.848801 12.406521 32.508499 11.692871 34.566502 11.692871 Z"/>
    <path id="path1" fill="#000000" stroke="none" d="M 47.158001 21.1031 C 48.120602 21.1031 49.232601 21.260799 50.4939 21.576099 L 50.4939 20.381199 C 50.4939 19.5347 50.319599 18.912401 49.9711 18.514101 C 49.639198 18.0991 49.083199 17.891701 48.3032 17.891701 C 47.5397 17.891701 46.9505 18.049301 46.535599 18.3647 C 46.120701 18.663401 45.9133 19.0949 45.9133 19.659199 L 42.701801 19.659199 C 42.701801 18.2817 43.183102 17.2859 44.145699 16.671831 C 45.124901 16.05776 46.485802 15.750731 48.2285 15.750731 C 50.717999 15.750731 52.327801 16.622051 53.058102 18.3647 C 53.306999 18.9622 53.431499 19.6675 53.431499 20.4807 L 53.431499 28.173201 L 50.867298 28.173201 L 50.643299 26.555099 C 49.863201 27.866199 48.668301 28.521799 47.058399 28.521799 C 45.498299 28.521799 44.2868 28.139999 43.423801 27.3766 C 42.627102 26.6464 42.228802 25.725201 42.228802 24.6133 C 42.228802 23.484699 42.668598 22.6217 43.548199 22.0242 C 44.427898 21.410099 45.6311 21.1031 47.158001 21.1031 Z M 50.4939 23.443199 C 49.514702 23.1777 48.601898 23.044901 47.755501 23.044901 C 46.162201 23.044901 45.365601 23.576 45.365601 24.638201 C 45.365601 25.0863 45.5481 25.476299 45.9133 25.808201 C 46.2784 26.1236 46.859299 26.2812 47.655899 26.2812 C 48.469101 26.2812 49.132999 26.015699 49.647499 25.4846 C 50.1786 24.936899 50.460701 24.2565 50.4939 23.443199 Z"/>
    <path id="path2" fill="#000000" stroke="none" d="M 57.986801 24.4888 C 58.02 25.634001 58.8582 26.206499 60.501202 26.206499 C 61.131901 26.206499 61.6464 26.073799 62.044701 25.808201 C 62.459599 25.5261 62.667099 25.202499 62.667099 24.837299 C 62.667099 24.4722 62.542599 24.1901 62.293598 23.9909 C 62.044701 23.7917 61.654701 23.6092 61.1236 23.443199 L 58.484699 22.4972 C 56.526402 21.816799 55.547199 20.7048 55.547199 19.161301 C 55.547199 18.132301 56.003601 17.310801 56.916401 16.69673 C 57.845798 16.066061 59.082199 15.750731 60.625702 15.750731 C 62.185799 15.750731 63.380699 16.09096 64.210503 16.77141 C 65.056999 17.4519 65.496803 18.306601 65.529999 19.3356 L 62.766602 19.3356 C 62.733501 18.9373 62.542599 18.621901 62.194099 18.389601 C 61.845501 18.1572 61.347599 18.041 60.700401 18.041 C 60.053101 18.041 59.546902 18.173801 59.181801 18.4394 C 58.833302 18.688301 58.659 18.9788 58.659 19.310699 C 58.659 19.8916 59.148602 20.323101 60.1278 20.6052 L 62.9907 21.675701 C 63.936699 21.991001 64.658699 22.3976 65.156601 22.8955 C 65.670998 23.376801 65.928299 24.0075 65.928299 24.7875 C 65.928299 25.7833 65.455299 26.6464 64.5093 27.3766 C 63.530102 28.139999 62.2356 28.521799 60.625702 28.521799 C 59.0158 28.521799 57.721298 28.173201 56.7421 27.4762 C 55.762901 26.762501 55.264999 25.766701 55.248402 24.4888 L 57.986801 24.4888 Z"/>
    <path id="path3" fill="#000000" stroke="none" d="M 76.542 17.518301 C 76.956902 18.049301 77.264 18.663401 77.463203 19.3605 C 77.678902 20.057499 77.786797 20.696499 77.786797 21.277401 C 77.786797 21.858299 77.753601 22.381001 77.687202 22.845699 L 69.870201 22.845699 C 69.903397 23.8249 70.144096 24.621599 70.592201 25.2356 C 71.040298 25.849701 71.720703 26.156799 72.633499 26.156799 C 73.8451 26.156799 74.567101 25.6257 74.7994 24.563499 L 77.761902 24.563499 C 77.562698 25.775 77.006699 26.7293 76.093903 27.426399 C 75.147903 28.156601 73.994499 28.521799 72.633499 28.521799 C 71.040298 28.521799 69.7043 27.940901 68.625504 26.7791 C 67.513496 25.5676 66.957497 24.0158 66.957497 22.1238 C 66.957497 20.181999 67.513496 18.621901 68.625504 17.4436 C 69.687698 16.31501 71.023697 15.750731 72.633499 15.750731 C 74.309799 15.750731 75.612602 16.339901 76.542 17.518301 Z M 72.658401 18.090801 C 71.828598 18.090801 71.181396 18.3647 70.716698 18.912401 C 70.2519 19.443501 69.978104 20.1322 69.895103 20.9786 L 75.048302 20.9786 C 75.048302 19.6675 74.6334 18.787901 73.803596 18.3398 C 73.488297 18.173801 73.106598 18.090801 72.658401 18.090801 Z"/>
    <path id="path4" fill="#000000" stroke="none" d="M 80.774101 12.0165 L 90.526703 12.0165 L 90.526703 14.555771 L 83.7117 14.555771 L 83.7117 18.812801 L 89.904297 18.812801 L 89.904297 21.3272 L 83.7117 21.3272 L 83.7117 28.173201 L 80.774101 28.173201 L 80.774101 12.0165 Z"/>
    <path id="path5" fill="#000000" stroke="none" d="M 92.985703 17.5478 L 95.923302 17.5478 L 95.923302 28.173201 L 92.985703 28.173201 L 92.985703 17.5478 Z M 92.637199 13.66423 C 92.637199 13.133141 92.7948 12.718229 93.110199 12.419491 C 93.425499 12.10416 93.873596 11.946489 94.454498 11.946489 C 95.018799 11.946489 95.458603 12.10416 95.773903 12.419491 C 96.105797 12.718229 96.271797 13.133141 96.271797 13.66423 C 96.271797 14.19532 96.105797 14.61853 95.773903 14.93387 C 95.458603 15.232599 95.018799 15.381969 94.454498 15.381969 C 93.873596 15.381969 93.425499 15.232599 93.110199 14.93387 C 92.7948 14.61853 92.637199 14.19532 92.637199 13.66423 Z"/>
    <path id="path6" fill="#000000" stroke="none" d="M 99.004898 11.94651 L 101.943001 11.94651 L 101.943001 28.173201 L 99.004898 28.173201 L 99.004898 11.94651 Z"/>
    <path id="path7" fill="#000000" stroke="none" d="M 113.754997 17.518301 C 114.169998 18.049301 114.476997 18.663401 114.676003 19.3605 C 114.891998 20.057499 115 20.696499 115 21.277401 C 115 21.858299 114.967003 22.381001 114.900002 22.845699 L 107.083 22.845699 C 107.116997 23.8249 107.357002 24.621599 107.805 25.2356 C 108.253998 25.849701 108.933998 26.156799 109.847 26.156799 C 111.057999 26.156799 111.779999 25.6257 112.013 24.563499 L 114.974998 24.563499 C 114.776001 25.775 114.220001 26.7293 113.306999 27.426399 C 112.361 28.156601 111.208 28.521799 109.847 28.521799 C 108.253998 28.521799 106.917 27.940901 105.838997 26.7791 C 104.726997 25.5676 104.170998 24.0158 104.170998 22.1238 C 104.170998 20.181999 104.726997 18.621901 105.838997 17.4436 C 106.901001 16.31501 108.237 15.750731 109.847 15.750731 C 111.523003 15.750731 112.825996 16.339901 113.754997 17.518301 Z M 109.872002 18.090801 C 109.042 18.090801 108.394997 18.3647 107.93 18.912401 C 107.464996 19.443501 107.191002 20.1322 107.108002 20.9786 L 112.262001 20.9786 C 112.262001 19.6675 111.847 18.787901 111.016998 18.3398 C 110.700996 18.173801 110.32 18.090801 109.872002 18.090801 Z"/>
    <path id="path8" fill="#2b61f0" fill-rule="evenodd" stroke="none" d="M 3.37117 7.946167 L 6.74234 7.946167 L 6.74234 11.317341 L 20.226999 11.3174 L 20.226999 24.802099 L 16.8559 28.1733 L 0 28.1733 L 0 11.317341 L 3.37117 7.946167 Z M 8.39879 25.7722 C 8.39879 20.565601 12.6195 16.34494 17.826 16.34494 L 17.826 14.630899 C 11.6729 14.630899 6.68475 19.618999 6.68475 25.7722 L 8.39879 25.7722 Z M 17.826 19.7064 C 14.476 19.7064 11.7602 22.4221 11.7602 25.7722 L 10.0271 25.7722 C 10.0271 21.465 13.5188 17.973301 17.826 17.973301 L 17.826 19.7064 Z M 15.1521 25.7722 C 15.1521 24.295401 16.3493 23.098301 17.826 23.098301 L 17.826 21.315701 C 15.3648 21.315701 13.3695 23.3109 13.3695 25.7722 L 15.1521 25.7722 Z"/>
</svg>
