<svg width="191" height="35" viewBox="0 0 191 35" fill="none" xmlns="http://www.w3.org/2000/svg">
<path d="M57.4105 6.22278C59.0643 6.22278 60.4977 6.42951 61.7105 6.84299C62.9234 7.22889 63.9708 7.78018 64.8529 8.49687C66.5895 9.90266 67.7196 11.8735 68.2434 14.4095L63.0336 15.3605C62.5926 13.9547 61.9035 12.8245 60.9663 11.97C60.0567 11.0879 58.9127 10.6469 57.5345 10.6469C55.6601 10.6469 54.144 11.4325 52.9863 13.0037C51.7459 14.7127 51.1257 17.0833 51.1257 20.1154C51.1257 23.1199 51.677 25.4767 52.7796 27.1857C53.8822 28.8672 55.3844 29.7079 57.2864 29.7079C59.1884 29.7079 60.6217 29.2531 61.5865 28.3434C62.5513 27.4062 63.0336 26.2072 63.0336 24.7462H68.2847C68.2847 27.7508 67.32 30.08 65.3904 31.7339C63.4885 33.3602 60.8698 34.1734 57.5345 34.1734C53.9787 34.1734 51.1533 32.933 49.0584 30.4521C46.9359 27.9162 45.8746 24.4706 45.8746 20.1154C45.8746 15.705 46.9634 12.2594 49.141 9.77862C51.236 7.40806 53.9924 6.22278 57.4105 6.22278Z" fill="black"/>
<path d="M78.3233 21.852C79.9221 21.852 81.7689 22.1138 83.8638 22.6376V20.6529C83.8638 19.2471 83.5744 18.2134 82.9955 17.5519C82.4442 16.8627 81.5208 16.5182 80.2253 16.5182C78.9573 16.5182 77.9788 16.7801 77.2896 17.3038C76.6005 17.7999 76.256 18.5166 76.256 19.4538H70.9222C70.9222 17.166 71.7216 15.5121 73.3203 14.4922C74.9467 13.4723 77.207 12.9623 80.1012 12.9623C84.236 12.9623 86.9097 14.4095 88.1226 17.3038C88.536 18.2961 88.7428 19.4676 88.7428 20.8183V33.5945H84.484L84.1119 30.907C82.8164 33.0846 80.8317 34.1734 78.1579 34.1734C75.5669 34.1734 73.5546 33.5394 72.1213 32.2714C70.7982 31.0586 70.1366 29.5287 70.1366 27.6819C70.1366 25.8075 70.8671 24.3741 72.328 23.3818C73.7889 22.3619 75.7874 21.852 78.3233 21.852ZM83.8638 25.7386C82.2375 25.2975 80.7215 25.077 79.3157 25.077C76.6694 25.077 75.3463 25.9591 75.3463 27.7232C75.3463 28.4675 75.6496 29.1152 76.256 29.6665C76.8624 30.1903 77.8272 30.4521 79.1503 30.4521C80.5009 30.4521 81.6035 30.0111 82.458 29.129C83.3401 28.2194 83.8087 27.0892 83.8638 25.7386Z" fill="black"/>
<path d="M96.3086 27.4752C96.3638 29.3771 97.7558 30.3281 100.485 30.3281C101.532 30.3281 102.387 30.1076 103.048 29.6665C103.737 29.1979 104.082 28.6604 104.082 28.054C104.082 27.4476 103.875 26.979 103.462 26.6482C103.048 26.3174 102.4 26.0142 101.518 25.7386L97.1356 24.1674C93.8829 23.0372 92.2566 21.1904 92.2566 18.6269C92.2566 16.9179 93.0147 15.5534 94.5307 14.5335C96.0743 13.4861 98.1279 12.9623 100.691 12.9623C103.282 12.9623 105.267 13.5274 106.645 14.6576C108.051 15.7877 108.782 17.2073 108.837 18.9163H104.247C104.192 18.2548 103.875 17.731 103.296 17.3451C102.717 16.9592 101.89 16.7663 100.815 16.7663C99.7404 16.7663 98.8997 16.9868 98.2933 17.4278C97.7144 17.8413 97.425 18.3237 97.425 18.875C97.425 19.8397 98.2382 20.5564 99.8645 21.025L104.619 22.8029C106.191 23.3267 107.39 24.002 108.217 24.8289C109.071 25.6283 109.498 26.6758 109.498 27.9713C109.498 29.6252 108.713 31.0586 107.142 32.2714C105.515 33.5394 103.365 34.1734 100.691 34.1734C98.0176 34.1734 95.8676 33.5945 94.2413 32.4368C92.615 31.2515 91.788 29.5976 91.7605 27.4752H96.3086Z" fill="black"/>
<path d="M127.126 15.898C127.815 16.7801 128.325 17.7999 128.656 18.9577C129.015 20.1154 129.194 21.1766 129.194 22.1414C129.194 23.1061 129.139 23.9744 129.028 24.7462H116.045C116.101 26.3726 116.5 27.6957 117.244 28.7156C117.989 29.7355 119.119 30.2454 120.635 30.2454C122.647 30.2454 123.846 29.3633 124.232 27.5992H129.152C128.822 29.6114 127.898 31.1964 126.382 32.3541C124.811 33.5669 122.895 34.1734 120.635 34.1734C117.989 34.1734 115.77 33.2086 113.978 31.2791C112.131 29.2669 111.208 26.6896 111.208 23.5472C111.208 20.3221 112.131 17.731 113.978 15.7739C115.742 13.8995 117.961 12.9623 120.635 12.9623C123.419 12.9623 125.583 13.9409 127.126 15.898ZM120.676 16.849C119.298 16.849 118.223 17.3038 117.451 18.2134C116.679 19.0955 116.225 20.2394 116.087 21.6452H124.646C124.646 19.4676 123.956 18.0067 122.578 17.2624C122.054 16.9868 121.42 16.849 120.676 16.849Z" fill="black"/>
<path d="M134.155 6.76029H150.353V10.9777H139.034V18.048H149.319V22.2241H139.034V33.5945H134.155V6.76029Z" fill="black"/>
<path d="M154.437 15.9471H159.316V33.5945H154.437V15.9471ZM153.858 9.49695C153.858 8.61488 154.12 7.92576 154.644 7.4296C155.168 6.90587 155.912 6.644 156.877 6.644C157.814 6.644 158.544 6.90587 159.068 7.4296C159.619 7.92576 159.895 8.61488 159.895 9.49695C159.895 10.379 159.619 11.0819 159.068 11.6056C158.544 12.1018 157.814 12.3499 156.877 12.3499C155.912 12.3499 155.168 12.1018 154.644 11.6056C154.12 11.0819 153.858 10.379 153.858 9.49695Z" fill="black"/>
<path d="M164.434 6.64404H169.313V33.5945H164.434V6.64404Z" fill="black"/>
<path d="M188.933 15.898C189.622 16.7801 190.132 17.7999 190.463 18.9577C190.821 20.1154 191 21.1766 191 22.1414C191 23.1061 190.945 23.9744 190.835 24.7462H177.852C177.907 26.3726 178.307 27.6957 179.051 28.7156C179.795 29.7355 180.925 30.2454 182.441 30.2454C184.453 30.2454 185.652 29.3633 186.038 27.5992H190.959C190.628 29.6114 189.704 31.1964 188.188 32.3541C186.617 33.5669 184.702 34.1734 182.441 34.1734C179.795 34.1734 177.576 33.2086 175.784 31.2791C173.938 29.2669 173.014 26.6896 173.014 23.5472C173.014 20.3221 173.938 17.731 175.784 15.7739C177.548 13.8995 179.767 12.9623 182.441 12.9623C185.225 12.9623 187.389 13.9409 188.933 15.898ZM182.483 16.849C181.104 16.849 180.029 17.3038 179.257 18.2134C178.486 19.0955 178.031 20.2394 177.893 21.6452H186.452C186.452 19.4676 185.763 18.0067 184.385 17.2624C183.861 16.9868 183.227 16.849 182.483 16.849Z" fill="black"/>
<path fill-rule="evenodd" clip-rule="evenodd" d="M11.1982 0H5.59908L0 5.59908H11.1982V0ZM33.5945 5.59917L0 5.59908V33.5946H27.9954L33.5945 27.9955V5.59917Z" fill="#2B61F0"/>
<path fill-rule="evenodd" clip-rule="evenodd" d="M29.6067 13.9493C20.9593 13.9493 13.9493 20.9594 13.9493 29.6067L11.1025 29.6067C11.1025 19.3871 19.3871 11.1025 29.6067 11.1025L29.6067 13.9493Z" fill="white"/>
<path fill-rule="evenodd" clip-rule="evenodd" d="M29.6067 19.5322C24.0427 19.5322 19.5322 24.0427 19.5322 29.6067L16.6537 29.6067C16.6537 22.453 22.453 16.6538 29.6067 16.6538L29.6067 19.5322Z" fill="white"/>
<path fill-rule="evenodd" clip-rule="evenodd" d="M29.6067 25.1657C27.154 25.1657 25.1657 27.154 25.1657 29.6067L22.205 29.6067C22.205 25.5189 25.5189 22.205 29.6067 22.205L29.6067 25.1657Z" fill="white"/>
</svg>
